<?xml version="1.0" encoding="iso-8859-1"?>
<!-- Generator: Adobe Illustrator 16.0.0, SVG Export Plug-In . SVG Version: 6.00 Build 0)  -->
<!DOCTYPE svg PUBLIC "-//W3C//DTD SVG 1.1//EN" "http://www.w3.org/Graphics/SVG/1.1/DTD/svg11.dtd">
<svg version="1.1" id="Capa_1" xmlns="http://www.w3.org/2000/svg" xmlns:xlink="http://www.w3.org/1999/xlink" x="0px" y="0px"
	 width="585.119px" height="585.119px" viewBox="0 0 585.119 585.119" style="enable-background:new 0 0 585.119 585.119;"
	 xml:space="preserve">
<g>
	<g>
		<g>
			<path d="M581.736,211.269c-4.035-6.053-11.435-9.415-18.158-8.743c-32.281,2.69-63.891-14.123-80.031-42.369
				c-16.14-28.246-14.795-63.89,3.363-90.119c4.035-6.053,4.707-14.122,1.344-20.176c-3.361-6.726-10.088-10.761-17.484-11.433
				c-24.885-1.345-49.768,5.38-71.288,17.486c-35.644,20.848-59.854,56.491-65.234,97.517c-1.346,10.76,6.053,20.848,17.486,22.866
				c10.76,1.345,21.52-6.054,22.864-17.486c4.035-28.918,20.177-53.13,45.06-67.925c5.381-3.363,10.762-5.38,16.813-7.398
				c-9.416,32.281-5.381,67.253,12.105,96.845c17.483,29.591,45.729,50.438,78.012,58.51c-4.707,4.035-9.414,7.397-14.795,10.76
				c-5.381,3.363-11.434,5.38-16.812,7.398c-10.763,3.362-16.142,14.795-12.779,25.556c2.69,8.743,10.762,14.123,18.832,14.123
				c2.018,0,4.035,0,6.053-1.345c8.742-2.69,16.812-6.726,24.211-10.761c21.521-12.777,39.006-30.937,51.111-53.13
				C586.443,224.72,585.771,217.321,581.736,211.269z"/>
			<path d="M273.046,400.922h-29.591l36.989-51.785c2.018-3.362,2.69-7.396,0.672-10.761c-2.018-3.362-5.38-5.38-8.743-5.38h-73.306
				c-4.035,0-8.07,2.689-9.415,6.726L148.628,445.98c-1.345,3.363-0.672,6.727,1.345,9.416c2.018,2.689,4.708,4.035,8.07,4.035l0,0
				h21.521l-28.247,73.979c-2.018,4.708,0,9.416,4.035,12.104c1.345,0.673,3.363,1.346,5.38,1.346c2.69,0,5.38-1.346,7.398-3.362
				l111.64-126.436c2.69-2.689,3.362-7.397,1.345-10.761C280.444,403.611,277.081,400.922,273.046,400.922z"/>
			<path d="M345.006,232.117h-7.396c-2.691-10.761-6.728-22.865-13.451-35.644c-22.193-41.697-61.873-64.563-110.967-64.563
				c-49.767,0-89.446,22.866-110.967,64.563c-6.726,13.451-10.761,26.901-13.451,37.662C35.644,244.223,0,285.246,0,339.722
				c0,50.439,32.954,92.81,82.048,104.241c14.123,3.363,28.918-5.38,32.281-20.176c3.363-14.123-5.38-28.918-20.176-32.281
				c-24.884-6.053-41.024-26.229-41.024-51.784c0-32.281,23.539-53.802,58.51-53.802c14.795,0,26.229-11.434,26.901-26.229
				c0-7.396,4.035-74.65,73.306-74.65c29.591,0,50.439,11.434,63.217,34.3c10.761,19.503,12.105,40.352,12.105,40.352
				c0.673,14.123,12.778,25.556,26.901,25.556h30.264c34.971,0,58.51,21.521,58.51,53.803c0,26.229-18.158,53.803-58.51,53.803
				c-14.795,0-26.9,12.105-26.9,26.9c0,14.796,12.105,26.9,26.9,26.9c63.891,0,112.313-46.403,112.313-107.604
				C457.318,277.85,409.568,232.117,345.006,232.117z"/>
		</g>
	</g>
</g>
<g>
</g>
<g>
</g>
<g>
</g>
<g>
</g>
<g>
</g>
<g>
</g>
<g>
</g>
<g>
</g>
<g>
</g>
<g>
</g>
<g>
</g>
<g>
</g>
<g>
</g>
<g>
</g>
<g>
</g>
</svg>
