<?xml version="1.0" encoding="iso-8859-1"?>
<!-- Generator: Adobe Illustrator 16.0.0, SVG Export Plug-In . SVG Version: 6.00 Build 0)  -->
<!DOCTYPE svg PUBLIC "-//W3C//DTD SVG 1.1//EN" "http://www.w3.org/Graphics/SVG/1.1/DTD/svg11.dtd">
<svg version="1.1" id="Capa_1" xmlns="http://www.w3.org/2000/svg" xmlns:xlink="http://www.w3.org/1999/xlink" x="0px" y="0px"
	 width="526.589px" height="526.589px" viewBox="0 0 526.589 526.589" style="enable-background:new 0 0 526.589 526.589;"
	 xml:space="preserve">
<g>
	<g>
		<g>
			<path d="M401.836,0c-36.316,0-70.616,16.141-94.154,44.387c-7.397,8.743-6.053,21.521,2.689,28.246
				c8.742,7.397,21.521,6.053,28.246-2.69c15.469-18.831,38.334-29.591,63.219-29.591c45.059,0,82.048,36.989,82.048,82.048
				c0,19.503-6.727,38.334-19.503,53.129c-7.398,8.743-6.054,21.521,2.688,28.246c4.035,3.363,8.743,4.708,12.778,4.708
				c6.053,0,11.433-2.69,15.468-7.398c18.831-22.193,28.919-50.439,28.919-79.358C524.235,54.475,469.088,0,401.836,0z"/>
			<path d="M347.361,173.512h-7.397c-2.689-10.76-6.726-22.866-13.45-35.644c-22.193-41.697-61.873-64.563-110.967-64.563
				c-49.767,0-89.446,22.866-110.967,64.563c-6.726,13.45-10.761,26.901-13.451,37.661C38.67,184.945,2.354,226.642,2.354,281.116
				c0,34.972,16.813,67.253,44.387,86.756c12.105,8.743,28.918,6.053,37.662-6.053c8.743-12.105,6.053-28.919-6.053-37.661
				c-13.451-9.416-21.521-25.558-21.521-43.042c0-32.281,23.539-53.802,58.51-53.802c14.795,0,26.229-11.433,26.901-26.229
				c0-7.398,4.035-74.65,73.305-74.65c29.591,0,50.44,11.433,63.217,34.299c10.761,19.503,12.104,40.352,12.104,40.352
				c0.673,14.123,12.778,25.556,26.901,25.556h29.592c34.971,0,58.51,21.521,58.51,53.802c0,26.9-17.485,47.077-43.715,52.457
				c-14.796,2.689-24.211,16.812-21.521,31.608c2.688,12.778,13.45,21.521,26.229,21.521c2.019,0,3.362,0,5.38-0.672
				c51.785-10.088,87.43-53.131,87.43-105.587C459.673,218.571,412.596,173.512,347.361,173.512z"/>
			<path d="M161.07,286.496c-12.778-3.362-25.556,4.035-28.919,16.812l-22.866,84.066c-3.363,12.777,4.035,25.556,16.813,28.918
				c2.018,0.673,4.035,0.673,6.053,0.673c10.088,0,20.176-6.726,22.866-17.485l22.866-84.738
				C180.575,302.637,173.176,289.859,161.07,286.496z"/>
			<path d="M99.871,434.452c-4.708,4.708-6.725,10.088-6.725,16.812c0,6.054,2.69,12.105,6.725,16.813
				c4.035,4.035,10.761,6.725,16.813,6.725c6.052,0,12.105-2.688,16.813-6.725c4.708-4.708,6.725-10.088,6.725-16.813
				c0-6.053-2.69-12.104-6.725-16.812C124.082,425.71,108.613,425.71,99.871,434.452z"/>
			<path d="M161.744,486.237c-4.035,4.034-6.725,10.76-6.725,16.812s2.69,12.106,6.725,16.813
				c4.708,4.708,10.761,6.726,16.813,6.726c6.052,0,12.105-2.689,16.813-6.726c4.708-4.707,6.725-10.762,6.725-16.813
				s-2.69-12.104-6.725-16.812C186.626,477.494,170.486,477.494,161.744,486.237z"/>
			<path d="M251.189,434.452c-4.708,4.708-6.725,10.088-6.725,16.812c0,6.054,2.69,12.105,6.725,16.813
				c4.035,4.035,10.76,6.725,16.813,6.725c6.053,0,12.104-2.688,16.812-6.725c4.035-4.708,6.726-10.761,6.726-16.813
				c0-6.052-2.689-12.104-6.726-16.812C276.073,425.71,259.933,425.71,251.189,434.452z"/>
			<path d="M222.943,338.281c-12.778-3.362-25.556,4.035-28.919,16.812l-22.866,84.738c-3.363,12.777,4.035,25.556,16.813,28.918
				c2.018,0.673,4.035,0.673,6.053,0.673c10.088,0,20.176-6.726,22.866-17.485l22.866-84.737
				C243.12,354.422,235.722,341.644,222.943,338.281z"/>
			<path d="M312.39,286.496c-12.778-3.362-25.558,4.035-28.919,16.812l-22.866,84.066c-3.363,12.777,4.035,25.556,16.812,28.918
				c2.019,0.673,4.035,0.673,6.054,0.673c10.088,0,20.176-6.726,22.866-17.485l22.865-84.738
				C332.565,302.637,325.167,289.859,312.39,286.496z"/>
		</g>
	</g>
</g>
<g>
</g>
<g>
</g>
<g>
</g>
<g>
</g>
<g>
</g>
<g>
</g>
<g>
</g>
<g>
</g>
<g>
</g>
<g>
</g>
<g>
</g>
<g>
</g>
<g>
</g>
<g>
</g>
<g>
</g>
</svg>
