<?xml version="1.0" encoding="iso-8859-1"?>
<!-- Generator: Adobe Illustrator 16.0.0, SVG Export Plug-In . SVG Version: 6.00 Build 0)  -->
<!DOCTYPE svg PUBLIC "-//W3C//DTD SVG 1.1//EN" "http://www.w3.org/Graphics/SVG/1.1/DTD/svg11.dtd">
<svg version="1.1" id="Capa_1" xmlns="http://www.w3.org/2000/svg" xmlns:xlink="http://www.w3.org/1999/xlink" x="0px" y="0px"
	 width="521.882px" height="521.882px" viewBox="0 0 521.882 521.882" style="enable-background:new 0 0 521.882 521.882;"
	 xml:space="preserve">
<g>
	<g>
		<g>
			<path d="M399.482,0c-36.316,0-70.616,16.141-94.154,44.387c-7.397,8.743-6.053,21.521,2.689,28.246
				c8.742,7.397,21.521,6.053,28.246-2.69c15.469-18.831,38.334-29.591,63.219-29.591c45.059,0,82.048,36.989,82.048,82.048
				c0,19.503-6.727,38.334-19.503,53.129c-7.398,8.743-6.054,21.521,2.688,28.246c4.035,3.363,8.743,4.708,12.778,4.708
				c6.053,0,11.433-2.69,15.468-7.398c18.831-22.193,28.919-50.439,28.919-79.358C521.882,55.147,466.734,0,399.482,0z"/>
			<path d="M345.008,173.512h-7.397c-2.689-10.76-6.726-22.866-13.45-35.644c-22.193-41.697-61.873-64.563-110.967-64.563
				c-49.767,0-89.446,22.866-110.967,64.563c-6.726,13.45-10.761,26.901-13.451,37.661c-52.458,9.416-88.774,51.113-88.774,105.587
				c0,34.972,16.813,67.253,44.387,86.756c12.105,8.743,28.918,6.053,37.662-6.053c8.743-12.105,6.053-28.918-6.053-37.661
				c-13.451-9.416-21.521-25.558-21.521-43.042c0-32.281,23.539-53.802,58.51-53.802c14.795,0,26.229-11.433,26.901-26.229
				c0-7.398,4.035-74.65,73.305-74.65c29.591,0,50.44,11.433,63.217,34.299c10.761,19.503,12.104,40.352,12.104,40.352
				c0.673,14.123,12.778,25.556,26.901,25.556h29.592c34.971,0,58.51,21.521,58.51,53.802c0,26.9-17.485,47.077-43.715,52.457
				c-14.795,3.362-24.211,17.485-21.521,32.281c2.689,12.777,13.45,21.521,26.229,21.521c2.019,0,3.362,0,5.38-0.673
				c51.785-10.088,87.43-53.13,87.43-105.587C457.319,219.244,410.242,173.512,345.008,173.512z"/>
			<path d="M135.851,357.112c2.018,0.672,4.035,0.672,6.053,0.672c10.088,0,20.176-6.726,22.866-17.485l8.07-29.592
				c3.363-12.777-4.035-25.556-16.813-28.918c-12.778-3.363-25.556,4.035-28.919,16.812l-8.07,29.593
				C115.675,340.972,123.073,353.749,135.851,357.112z"/>
			<path d="M315.416,281.789c-12.778-3.363-25.556,4.035-28.919,16.812l-8.07,29.593c-3.361,12.777,4.035,25.556,16.813,28.919
				c2.018,0.672,4.035,0.672,6.053,0.672c10.088,0,20.176-6.726,22.866-17.485l8.069-29.592
				C335.592,297.93,328.194,285.151,315.416,281.789z"/>
			<path d="M221.262,336.264c-12.778-3.361-25.556,4.035-28.918,16.813l-8.07,29.591c-3.363,12.778,4.035,25.556,16.813,28.919
				c2.018,0.672,4.035,0.672,6.053,0.672c10.088,0,20.176-6.725,22.866-17.484l7.397-29.592
				C240.766,353.077,233.368,339.626,221.262,336.264z"/>
			<path d="M126.436,391.411c-12.778-3.363-25.556,4.035-28.919,16.812l-8.07,29.593c-3.362,12.776,4.035,25.556,16.813,28.918
				c2.018,0.673,4.035,0.673,6.053,0.673c10.088,0,20.176-6.727,22.866-17.485l8.07-29.592
				C146.612,407.552,139.214,394.773,126.436,391.411z"/>
			<path d="M285.825,391.411c-12.778-3.363-25.556,4.035-28.919,16.812l-8.07,29.593c-3.363,12.776,4.035,25.556,16.813,28.918
				c2.018,0.673,4.034,0.673,6.053,0.673c10.088,0,20.176-6.727,22.865-17.485l8.069-29.592
				C306.001,407.552,298.603,394.773,285.825,391.411z"/>
			<path d="M191.671,445.886c-12.778-3.362-25.556,4.035-28.918,16.813l-8.07,29.592c-3.363,12.778,4.035,25.556,16.813,28.919
				c2.018,0.672,4.035,0.672,6.053,0.672c10.088,0,20.176-6.725,22.866-17.485l8.07-29.592
				C211.847,462.026,204.449,449.248,191.671,445.886z"/>
		</g>
	</g>
</g>
<g>
</g>
<g>
</g>
<g>
</g>
<g>
</g>
<g>
</g>
<g>
</g>
<g>
</g>
<g>
</g>
<g>
</g>
<g>
</g>
<g>
</g>
<g>
</g>
<g>
</g>
<g>
</g>
<g>
</g>
</svg>
