<?xml version="1.0" encoding="iso-8859-1"?>
<!-- Generator: Adobe Illustrator 16.0.0, SVG Export Plug-In . SVG Version: 6.00 Build 0)  -->
<!DOCTYPE svg PUBLIC "-//W3C//DTD SVG 1.1//EN" "http://www.w3.org/Graphics/SVG/1.1/DTD/svg11.dtd">
<svg version="1.1" id="Capa_1" xmlns="http://www.w3.org/2000/svg" xmlns:xlink="http://www.w3.org/1999/xlink" x="0px" y="0px"
	 width="609.311px" height="609.311px" viewBox="0 0 609.311 609.311" style="enable-background:new 0 0 609.311 609.311;"
	 xml:space="preserve">
<g>
	<g>
		<g>
			<path d="M156.026,386.367c-12.778-3.362-25.556,4.035-28.919,16.813L89.446,542.394c-3.362,12.778,4.035,25.556,16.813,28.919
				c2.018,0.672,4.035,0.672,6.053,0.672c10.088,0,20.176-6.725,22.866-17.484l37.662-139.214
				C176.202,403.181,168.804,389.729,156.026,386.367z"/>
			<path d="M306.672,442.187h-29.591l36.989-51.784c2.018-3.361,2.688-7.396,0.672-10.761c-2.019-3.362-5.379-5.38-8.743-5.38
				h-73.978c-4.035,0-8.07,2.689-9.416,6.726l-41.024,106.26c-1.345,3.361-0.672,6.726,1.345,9.414
				c2.018,2.69,4.708,4.035,8.07,4.035l0,0h21.521l-28.246,73.979c-2.018,4.708,0,9.415,4.035,12.104
				c1.345,0.673,3.363,1.346,5.38,1.346c2.69,0,5.38-1.346,7.397-3.362l111.639-126.437c2.691-2.688,3.363-7.396,1.347-10.76
				C314.07,444.877,310.707,442.187,306.672,442.187z"/>
			<path d="M499.016,236.394c0-57.837-47.078-104.915-104.914-104.915c-20.85,0-41.696,6.053-58.51,18.158
				c-9.416,6.053-11.434,18.831-5.381,28.246c6.053,9.416,18.83,11.433,28.246,5.38c10.76-7.398,23.539-10.76,36.316-10.76
				c35.645,0,64.562,28.918,64.562,64.563c0,10.76-2.688,20.848-7.398,29.591c-5.379,10.088-1.344,22.193,8.744,26.901
				c2.689,1.345,6.054,2.018,9.414,2.018c7.398,0,14.123-4.035,18.158-10.76C494.98,270.02,499.016,253.878,499.016,236.394z"/>
			<path d="M394.102,99.871c11.433,0,20.177-8.743,20.177-20.176V41.36c0-11.433-8.744-20.176-20.177-20.176
				c-11.434,0-20.176,8.743-20.176,20.176v38.334C373.926,91.127,382.668,99.871,394.102,99.871z"/>
			<path d="M589.135,216.218h-38.334c-11.434,0-20.178,8.743-20.178,20.176s8.744,20.176,20.178,20.176h38.334
				c11.433,0,20.176-8.743,20.176-20.176S600.566,216.218,589.135,216.218z"/>
			<path d="M505.068,145.602c5.379,0,10.088-2.018,14.123-6.053l26.899-26.901c8.07-8.07,8.07-20.849,0-28.246
				c-8.069-8.07-20.848-8.07-28.246,0l-26.899,26.901c-8.07,8.07-8.07,20.849,0,28.246
				C494.307,144.258,499.688,145.602,505.068,145.602z"/>
			<path d="M519.191,333.237c-8.07-8.069-20.851-8.069-28.246,0c-8.07,8.07-8.07,20.85,0,28.246l26.899,26.901
				c4.035,4.035,9.416,6.053,14.123,6.053c5.381,0,10.088-2.018,14.123-6.053c8.07-8.07,8.07-20.85,0-28.246L519.191,333.237z"/>
			<path d="M268.338,140.223c4.035,4.035,9.416,6.053,14.123,6.053c5.38,0,10.088-2.018,14.123-6.053
				c8.07-8.071,8.07-20.849,0-28.247l-26.901-26.901c-8.07-8.07-20.848-8.07-28.246,0c-8.07,8.07-8.07,20.848,0,28.246
				L268.338,140.223z"/>
			<path d="M345.006,274.056h-7.396c-2.691-10.761-6.728-22.866-13.451-35.644c-22.193-41.697-61.873-64.563-110.967-64.563
				c-49.767,0-89.446,22.866-110.967,64.563c-6.726,13.45-10.761,26.901-13.451,37.662C35.644,285.488,0,327.185,0,381.659
				c0,34.973,16.813,67.254,44.387,86.757c12.105,8.742,28.918,6.053,37.662-6.054c8.743-12.104,6.053-28.918-6.053-37.661
				c-13.451-9.415-21.521-25.556-21.521-43.042c0-32.28,23.539-53.802,58.51-53.802c14.796,0,26.229-11.434,26.901-26.229
				c0-7.397,4.035-74.65,73.305-74.65c29.591,0,50.439,11.433,63.218,34.299c10.76,19.503,12.105,40.352,12.105,40.352
				c0.673,14.123,12.778,25.555,26.902,25.555h30.264c34.972,0,58.511,21.521,58.511,53.802c0,26.901-17.486,47.077-43.716,52.458
				c-14.795,2.689-24.211,16.813-21.521,31.608c2.69,12.778,13.451,21.521,26.229,21.521c2.019,0,3.363,0,5.382-0.672
				c51.784-10.088,87.428-53.13,87.428-105.587C457.318,319.114,410.242,274.056,345.006,274.056z"/>
		</g>
	</g>
</g>
<g>
</g>
<g>
</g>
<g>
</g>
<g>
</g>
<g>
</g>
<g>
</g>
<g>
</g>
<g>
</g>
<g>
</g>
<g>
</g>
<g>
</g>
<g>
</g>
<g>
</g>
<g>
</g>
<g>
</g>
</svg>
