<?xml version="1.0" encoding="iso-8859-1"?>
<!-- Generator: Adobe Illustrator 16.0.0, SVG Export Plug-In . SVG Version: 6.00 Build 0)  -->
<!DOCTYPE svg PUBLIC "-//W3C//DTD SVG 1.1//EN" "http://www.w3.org/Graphics/SVG/1.1/DTD/svg11.dtd">
<svg version="1.1" id="Capa_1" xmlns="http://www.w3.org/2000/svg" xmlns:xlink="http://www.w3.org/1999/xlink" x="0px" y="0px"
	 width="610.654px" height="610.654px" viewBox="0 0 610.654 610.654" style="enable-background:new 0 0 610.654 610.654;"
	 xml:space="preserve">
<g>
	<g>
		<g>
			<path d="M305.328,0C141.232,0,8.071,120.382,8.071,268.338c0,14.796,12.105,26.901,27.574,26.901
				c11.433,0,21.521-6.725,24.884-17.486c1.345-3.362,14.795-33.626,58.51-33.626c40.352,0,54.475,25.556,57.837,31.609
				c0.672,2.018,2.018,4.708,3.362,6.726c4.708,7.397,13.451,12.105,22.866,12.105c8.743,0,16.813-4.035,22.193-11.433
				c1.345-2.018,2.018-3.363,2.69-5.38c4.035-6.053,23.539-33.626,76.668-33.626c57.837,0,75.995,31.609,77.341,34.299
				c0.672,1.345,1.347,3.362,2.689,4.708c4.709,7.398,13.451,11.433,22.192,11.433c9.416,0,17.486-4.708,22.867-12.105
				c1.344-2.018,2.019-4.035,2.689-6.053c2.018-4.035,15.469-32.282,57.838-32.282c43.041,0,56.492,29.591,57.836,32.954
				c4.035,10.76,14.123,17.486,24.885,17.486c0.672,0,0.672,0,1.344,0c0.675,0,0.675,0,1.347,0
				c14.795,0,26.899-12.105,26.899-26.901C602.585,120.382,469.425,0,305.328,0z M489.601,190.998
				c-41.695,0-68.599,16.813-85.41,33.626c-19.504-16.813-51.113-33.626-100.207-33.626c-49.094,0-80.703,16.813-100.207,33.626
				c-16.813-16.813-43.714-33.626-85.411-33.626c-16.813,0-30.937,2.69-43.042,6.725c32.954-83.394,123.745-143.921,230.004-143.921
				c106.932,0,197.723,60.527,230.004,145.266C522.556,194.361,507.759,190.998,489.601,190.998z"/>
			<path d="M445.214,486.91c-14.795,0-26.899,12.104-26.899,26.899c0,23.539-19.504,43.044-43.041,43.044
				c-23.539,0-43.043-19.505-43.043-43.716V309.363c0-14.796-12.105-26.901-26.901-26.901s-26.901,12.105-26.901,26.901V513.81
				c0,53.132,43.714,96.845,96.845,96.845c53.129,0,96.844-43.713,96.844-96.845C472.116,499.016,460.011,486.91,445.214,486.91z"/>
		</g>
	</g>
</g>
<g>
</g>
<g>
</g>
<g>
</g>
<g>
</g>
<g>
</g>
<g>
</g>
<g>
</g>
<g>
</g>
<g>
</g>
<g>
</g>
<g>
</g>
<g>
</g>
<g>
</g>
<g>
</g>
<g>
</g>
</svg>
