<?xml version="1.0" encoding="iso-8859-1"?>
<!-- Generator: Adobe Illustrator 16.0.0, SVG Export Plug-In . SVG Version: 6.00 Build 0)  -->
<!DOCTYPE svg PUBLIC "-//W3C//DTD SVG 1.1//EN" "http://www.w3.org/Graphics/SVG/1.1/DTD/svg11.dtd">
<svg version="1.1" id="Capa_1" xmlns="http://www.w3.org/2000/svg" xmlns:xlink="http://www.w3.org/1999/xlink" x="0px" y="0px"
	 width="586.443px" height="586.443px" viewBox="0 0 586.443 586.443" style="enable-background:new 0 0 586.443 586.443;"
	 xml:space="preserve">
<g>
	<g>
		<g>
			<path d="M0,293.222c0,161.407,131.815,293.221,293.222,293.221c161.407,0,293.221-131.814,293.221-293.221
				C586.443,131.815,454.629,0,293.222,0C131.815,0,0,131.815,0,293.222z M532.643,293.222
				c0,131.815-107.604,239.419-239.419,239.419S53.803,425.037,53.803,293.222s107.604-239.42,239.42-239.42
				C425.037,53.802,532.643,161.407,532.643,293.222z"/>
			<path d="M145.266,274.392c-8.07,2.69-12.778,10.76-12.778,18.831c0,8.071,5.38,16.141,12.778,18.831l254.888,96.845
				c8.742,3.362,18.157,0.674,23.539-6.726c2.688-3.363,4.034-7.397,4.034-12.104s-1.346-8.742-4.709-12.779l-68.598-84.065
				l68.598-84.066c6.054-7.398,6.054-17.486,0.675-24.883c-5.382-7.398-14.797-10.088-23.539-6.726L145.266,274.392z
				 M312.725,280.444c-6.053,7.397-6.053,18.157,0,25.556l31.609,38.334l-134.505-51.112l134.505-51.112L312.725,280.444z"/>
		</g>
	</g>
</g>
<g>
</g>
<g>
</g>
<g>
</g>
<g>
</g>
<g>
</g>
<g>
</g>
<g>
</g>
<g>
</g>
<g>
</g>
<g>
</g>
<g>
</g>
<g>
</g>
<g>
</g>
<g>
</g>
<g>
</g>
</svg>
