<?xml version="1.0" encoding="iso-8859-1"?>
<!-- Generator: Adobe Illustrator 16.0.0, SVG Export Plug-In . SVG Version: 6.00 Build 0)  -->
<!DOCTYPE svg PUBLIC "-//W3C//DTD SVG 1.1//EN" "http://www.w3.org/Graphics/SVG/1.1/DTD/svg11.dtd">
<svg version="1.1" id="Capa_1" xmlns="http://www.w3.org/2000/svg" xmlns:xlink="http://www.w3.org/1999/xlink" x="0px" y="0px"
	 width="609.311px" height="609.311px" viewBox="0 0 609.311 609.311" style="enable-background:new 0 0 609.311 609.311;"
	 xml:space="preserve">
<g>
	<g>
		<g>
			<path d="M499.016,236.057c0-57.837-47.078-104.915-104.914-104.915c-20.85,0-41.696,6.053-58.51,18.158
				c-9.416,6.053-11.434,18.831-5.381,28.246c6.053,9.416,18.83,11.433,28.246,5.38c10.76-7.398,23.539-10.76,36.316-10.76
				c35.645,0,64.562,28.918,64.562,64.563c0,10.76-2.688,20.848-7.398,29.591c-5.379,10.088-1.344,22.193,8.744,26.901
				c2.689,1.345,6.054,2.018,9.414,2.018c7.398,0,14.123-4.035,18.158-10.76C494.98,269.683,499.016,252.87,499.016,236.057z"/>
			<path d="M394.102,99.534c11.433,0,20.177-8.743,20.177-20.176V41.024c0-11.433-8.744-20.176-20.177-20.176
				c-11.434,0-20.176,8.743-20.176,20.176v38.334C373.926,90.791,382.668,99.534,394.102,99.534z"/>
			<path d="M589.135,215.881h-38.334c-11.434,0-20.178,8.743-20.178,20.176s8.744,20.176,20.178,20.176h38.334
				c11.433,0,20.176-8.743,20.176-20.176S600.566,215.881,589.135,215.881z"/>
			<path d="M505.068,145.265c5.379,0,10.088-2.018,14.123-6.053l26.899-26.901c8.07-8.07,8.07-20.849,0-28.246
				c-8.069-8.07-20.848-8.07-28.246,0l-26.899,26.901c-8.07,8.07-8.07,20.849,0,28.246
				C494.307,143.248,499.688,145.265,505.068,145.265z"/>
			<path d="M519.191,332.901c-8.07-8.069-20.851-8.069-28.246,0c-8.07,8.07-8.07,20.85,0,28.246l26.899,26.901
				c4.035,4.035,9.416,6.053,14.123,6.053c5.381,0,10.088-2.018,14.123-6.053c8.07-8.07,8.07-20.85,0-28.246L519.191,332.901z"/>
			<path d="M268.338,139.886c4.035,4.035,9.416,6.053,14.123,6.053c5.38,0,10.088-2.018,14.123-6.053
				c8.07-8.071,8.07-20.849,0-28.247l-26.901-26.901c-8.07-8.07-20.848-8.07-28.246,0c-8.07,8.07-8.07,20.848,0,28.246
				L268.338,139.886z"/>
			<path d="M273.046,442.523h-29.591l36.989-51.784c2.018-3.362,2.69-7.397,0.672-10.761c-2.018-3.363-5.38-5.38-8.743-5.38h-73.306
				c-4.035,0-8.07,2.689-9.416,6.725l-41.024,106.261c-1.345,3.361-0.672,6.725,1.345,9.415c2.017,2.689,4.708,4.034,8.07,4.034l0,0
				h21.521l-28.246,73.979c-2.018,4.707,0,9.415,4.035,12.104c1.345,0.673,3.363,1.346,5.38,1.346c2.69,0,5.38-1.346,7.398-3.362
				l112.984-126.436c2.69-2.69,3.363-7.397,1.345-10.762C280.444,444.541,277.081,442.523,273.046,442.523z"/>
			<path d="M345.006,273.719h-7.396c-2.691-10.761-6.728-22.866-13.451-35.644c-22.193-41.697-61.873-64.563-110.967-64.563
				c-49.767,0-89.446,22.866-110.967,64.563c-6.726,13.45-10.761,26.901-13.451,37.662C35.644,285.151,0,326.175,0,381.323
				c0,50.439,32.954,92.138,82.721,104.242c14.123,3.362,28.918-5.381,32.281-20.176c3.363-14.123-5.38-28.919-20.176-32.281
				c-24.883-6.053-41.024-26.229-41.024-51.785c0-32.28,23.538-53.802,58.51-53.802c14.795,0,26.229-11.434,26.901-26.229
				c0-7.397,4.035-74.65,73.306-74.65c29.591,0,50.439,11.433,63.217,34.299c10.761,19.503,12.105,40.352,12.105,40.352
				c0.673,14.123,12.779,25.555,26.901,25.555h30.264c34.973,0,58.51,21.521,58.51,53.802c0,26.229-18.157,53.804-58.51,53.804
				c-14.795,0-26.899,12.104-26.899,26.9c0,14.795,12.104,26.9,26.899,26.9c63.892,0,112.313-46.404,112.313-107.604
				C457.318,318.778,410.242,273.719,345.006,273.719z"/>
		</g>
	</g>
</g>
<g>
</g>
<g>
</g>
<g>
</g>
<g>
</g>
<g>
</g>
<g>
</g>
<g>
</g>
<g>
</g>
<g>
</g>
<g>
</g>
<g>
</g>
<g>
</g>
<g>
</g>
<g>
</g>
<g>
</g>
</svg>
