<?xml version="1.0" encoding="iso-8859-1"?>
<!-- Generator: Adobe Illustrator 16.0.0, SVG Export Plug-In . SVG Version: 6.00 Build 0)  -->
<!DOCTYPE svg PUBLIC "-//W3C//DTD SVG 1.1//EN" "http://www.w3.org/Graphics/SVG/1.1/DTD/svg11.dtd">
<svg version="1.1" id="Capa_1" xmlns="http://www.w3.org/2000/svg" xmlns:xlink="http://www.w3.org/1999/xlink" x="0px" y="0px"
	 width="521.88px" height="521.88px" viewBox="0 0 521.88 521.88" style="enable-background:new 0 0 521.88 521.88;"
	 xml:space="preserve">
<g>
	<g>
		<g>
			<path d="M345.007,190.324h-7.397c-2.689-10.761-6.726-22.866-13.45-35.644c-22.193-41.697-61.873-64.563-110.967-64.563
				c-49.767,0-89.446,22.866-110.967,64.563c-6.726,13.451-10.761,26.901-13.451,37.662C36.316,201.757,0,243.454,0,297.929
				c0,34.971,16.813,67.252,44.387,86.756c12.105,8.742,28.918,6.053,37.662-6.053c8.743-12.105,6.053-28.92-6.053-37.662
				c-13.451-9.416-21.521-25.558-21.521-43.041c0-32.281,23.539-53.803,58.51-53.803c14.795,0,26.229-11.433,26.901-26.229
				c0-7.397,4.036-74.65,73.306-74.65c29.591,0,50.44,11.433,63.217,34.299c10.761,19.503,12.104,40.352,12.104,40.352
				c0.674,14.123,12.778,25.556,26.901,25.556h29.592c34.972,0,58.51,21.521,58.51,53.802c0,26.901-17.485,47.078-43.715,52.457
				c-14.796,2.69-24.211,16.813-21.521,31.608c2.688,12.777,13.45,21.521,26.229,21.521c2.019,0,3.362,0,5.38-0.674
				c51.785-10.089,87.43-53.13,87.43-105.586C457.318,235.383,410.241,190.324,345.007,190.324z"/>
			<path d="M399.481,16.812c-36.316,0-70.616,16.141-94.154,44.387c-7.397,8.743-6.053,21.521,2.689,28.246
				c8.742,7.398,21.521,6.053,28.246-2.69c15.469-18.831,38.334-29.591,63.219-29.591c45.059,0,82.048,36.989,82.048,82.048
				c0,19.503-6.727,38.334-19.503,53.13c-7.398,8.743-6.054,21.521,2.688,28.246c4.035,3.363,8.743,4.708,12.778,4.708
				c6.053,0,11.433-2.69,15.468-7.397c18.831-22.194,28.919-50.44,28.919-79.358C521.881,71.287,466.733,16.812,399.481,16.812z"/>
			<path d="M156.026,303.308c-12.778-3.361-25.556,4.035-28.919,16.813l-37.661,138.54c-3.362,12.779,4.035,25.558,16.813,28.92
				c2.018,0.673,4.035,0.673,6.053,0.673c10.088,0,20.176-6.726,22.866-17.486l37.662-139.213
				C176.202,319.449,168.804,306.671,156.026,303.308z"/>
			<path d="M306.672,359.128h-29.591l36.989-51.785c2.018-3.361,2.688-7.396,0.672-10.76c-2.018-3.364-5.38-5.382-8.742-5.382
				h-73.978c-4.035,0-8.071,2.691-9.416,6.728l-41.024,106.258c-1.345,3.363-0.672,6.727,1.345,9.416
				c2.017,2.689,4.708,4.035,8.07,4.035l0,0h21.521l-28.246,73.979c-2.018,4.707,0,9.416,4.035,12.105
				c1.345,0.672,3.362,1.346,5.38,1.346c2.69,0,5.38-1.346,7.398-3.363l111.639-126.436c2.69-2.689,3.363-7.398,1.347-10.76
				C314.07,361.146,310.707,359.128,306.672,359.128z"/>
		</g>
	</g>
</g>
<g>
</g>
<g>
</g>
<g>
</g>
<g>
</g>
<g>
</g>
<g>
</g>
<g>
</g>
<g>
</g>
<g>
</g>
<g>
</g>
<g>
</g>
<g>
</g>
<g>
</g>
<g>
</g>
<g>
</g>
</svg>
