<?xml version="1.0" encoding="iso-8859-1"?>
<!-- Generator: Adobe Illustrator 16.0.0, SVG Export Plug-In . SVG Version: 6.00 Build 0)  -->
<!DOCTYPE svg PUBLIC "-//W3C//DTD SVG 1.1//EN" "http://www.w3.org/Graphics/SVG/1.1/DTD/svg11.dtd">
<svg version="1.1" id="Capa_1" xmlns="http://www.w3.org/2000/svg" xmlns:xlink="http://www.w3.org/1999/xlink" x="0px" y="0px"
	 width="606.619px" height="606.62px" viewBox="0 0 606.619 606.62" style="enable-background:new 0 0 606.619 606.62;"
	 xml:space="preserve">
<g>
	<g>
		<g>
			<path d="M495.652,234.711c0-57.837-47.076-104.915-104.914-104.915c-20.849,0-41.697,6.053-58.511,18.158
				c-9.415,6.053-11.434,18.831-5.381,28.246c6.054,9.416,18.832,11.433,28.246,5.38c10.763-7.398,23.539-10.76,36.318-10.76
				c35.643,0,64.562,28.918,64.562,64.563c0,10.76-2.69,20.848-7.397,29.591c-5.381,10.088-1.346,22.193,8.742,26.901
				c2.69,1.345,6.053,2.018,9.416,2.018c7.397,0,14.123-4.035,18.157-10.76C491.617,268.337,495.652,252.196,495.652,234.711z"/>
			<path d="M390.738,98.188c11.434,0,20.176-8.743,20.176-20.176V39.678c0-11.433-8.742-20.176-20.176-20.176
				c-11.435,0-20.176,8.743-20.176,20.176v38.334C370.562,89.445,379.979,98.188,390.738,98.188z"/>
			<path d="M586.443,214.536h-38.334c-11.433,0-20.177,8.743-20.177,20.176s8.744,20.176,20.177,20.176h38.334
				c11.434,0,20.176-8.743,20.176-20.176S597.205,214.536,586.443,214.536z"/>
			<path d="M501.705,143.919c5.381,0,10.088-2.018,14.123-6.053l26.902-26.901c8.069-8.07,8.069-20.849,0-28.246
				c-8.07-8.07-20.851-8.07-28.246,0l-26.902,26.901c-8.07,8.07-8.07,20.849,0,28.246
				C491.617,142.576,496.326,143.919,501.705,143.919z"/>
			<path d="M515.828,331.555c-8.07-8.069-20.848-8.069-28.246,0c-8.07,8.07-8.07,20.85,0,28.246l26.902,26.901
				c4.034,4.035,9.414,6.053,14.123,6.053c5.379,0,10.088-2.018,14.123-6.053c8.069-8.07,8.069-20.85,0-28.246L515.828,331.555z"/>
			<path d="M265.648,138.541c4.035,4.035,9.416,6.053,14.123,6.053c5.38,0,10.088-2.018,14.123-6.053
				c8.07-8.071,8.07-20.849,0-28.247l-26.901-26.901c-8.07-8.07-20.849-8.07-28.246,0c-8.07,8.07-8.07,20.848,0,28.246
				L265.648,138.541z"/>
			<path d="M341.645,275.735h-10.088c-2.69-10.76-6.727-24.211-14.123-37.662c-15.469-28.918-46.405-62.545-108.276-62.545
				c-61.872,0-92.809,34.299-107.604,63.218c-7.398,14.123-11.433,28.246-13.451,39.006C36.317,285.823,0,326.175,0,379.977
				c0,33.627,16.141,65.235,43.042,84.066c10.76,7.396,25.556,5.38,32.954-5.381c7.398-10.76,5.38-25.557-5.38-32.953
				C55.82,415.622,47.75,398.808,47.75,379.977c0-34.299,24.884-57.165,61.873-57.165c12.778,0,22.866-10.088,23.539-22.866
				c0-8.07,4.708-77.34,76.668-77.34s78.013,69.942,78.686,78.013c0.672,12.777,10.76,22.192,23.538,22.192h30.265
				c36.987,0,61.873,22.866,61.873,57.165c0,28.246-18.158,50.439-46.404,55.82c-12.779,2.689-20.851,14.795-18.832,27.573
				c2.018,11.433,12.104,18.831,22.867,18.831c1.344,0,2.688,0,4.707-0.673c49.768-9.415,84.737-51.784,84.737-102.226
				C450.594,319.45,404.861,275.735,341.645,275.735z"/>
			<path d="M152.664,379.977c-12.778-3.361-25.556,4.035-28.919,16.813l-8.07,29.591c-3.363,12.778,4.035,25.557,16.813,28.919
				c2.018,0.673,4.035,0.673,6.053,0.673c10.088,0,20.176-6.726,22.866-17.485l8.07-29.592
				C172.84,396.791,165.442,384.012,152.664,379.977z"/>
			<path d="M123.745,489.599c-12.778-3.361-25.556,4.035-28.918,16.813l-8.07,29.591c-3.363,12.778,4.035,25.557,16.813,28.919
				c2.018,0.673,4.035,0.673,6.053,0.673c10.088,0,20.176-6.726,22.866-17.485l8.07-29.592
				C143.921,505.74,136.523,492.961,123.745,489.599z"/>
			<path d="M303.31,440.504h-29.591l36.988-51.784c2.018-3.361,2.691-7.396,0.674-10.761c-2.018-3.362-5.381-5.38-8.743-5.38
				h-73.306c-4.035,0-8.07,2.689-9.416,6.726l-41.024,106.933c-1.345,3.361-0.673,6.725,1.345,9.415
				c2.018,2.689,4.708,4.034,8.071,4.034l0,0h21.521l-28.246,73.979c-2.018,4.707,0,9.415,4.035,12.104
				c1.345,0.673,3.363,1.346,5.38,1.346c2.69,0,5.38-1.346,7.398-3.362l111.639-126.436c2.688-2.69,3.363-7.397,1.346-10.762
				C310.707,443.195,307.346,440.504,303.31,440.504z"/>
		</g>
	</g>
</g>
<g>
</g>
<g>
</g>
<g>
</g>
<g>
</g>
<g>
</g>
<g>
</g>
<g>
</g>
<g>
</g>
<g>
</g>
<g>
</g>
<g>
</g>
<g>
</g>
<g>
</g>
<g>
</g>
<g>
</g>
</svg>
