<?xml version="1.0" encoding="iso-8859-1"?>
<!-- Generator: Adobe Illustrator 16.0.0, SVG Export Plug-In . SVG Version: 6.00 Build 0)  -->
<!DOCTYPE svg PUBLIC "-//W3C//DTD SVG 1.1//EN" "http://www.w3.org/Graphics/SVG/1.1/DTD/svg11.dtd">
<svg version="1.1" id="Capa_1" xmlns="http://www.w3.org/2000/svg" xmlns:xlink="http://www.w3.org/1999/xlink" x="0px" y="0px"
	 width="585.119px" height="585.12px" viewBox="0 0 585.119 585.12" style="enable-background:new 0 0 585.119 585.12;"
	 xml:space="preserve">
<g>
	<g>
		<g>
			<path d="M158.044,325.935c-12.778-3.361-25.556,4.035-28.919,16.813l-22.866,84.737c-3.363,12.778,4.035,25.558,16.813,28.92
				c2.018,0.673,4.035,0.673,6.053,0.673c10.088,0,20.176-6.727,22.866-17.486l22.866-84.738
				C178.22,342.076,170.822,329.298,158.044,325.935z"/>
			<path d="M97.516,473.891c-4.708,4.708-6.725,10.761-6.725,16.813c0,6.052,2.69,12.104,6.725,16.812
				c4.035,4.035,10.088,6.725,16.813,6.725c6.053,0,12.105-2.688,16.813-6.725c4.708-4.708,6.726-10.761,6.726-16.812
				c0-6.053-2.69-12.105-6.726-16.813C121.728,465.149,106.259,465.149,97.516,473.891z"/>
			<path d="M159.389,525.676c-4.035,4.035-6.725,10.76-6.725,16.813s2.69,12.105,6.725,16.812
				c4.708,4.035,10.088,6.726,16.813,6.726c6.053,0,12.105-2.689,16.813-6.726c4.708-4.707,6.726-10.76,6.726-16.812
				c0-6.054-2.69-12.105-6.726-16.813C183.6,516.933,168.132,516.933,159.389,525.676z"/>
			<path d="M248.835,473.891c-4.708,4.708-6.725,10.761-6.725,16.813c0,6.052,2.69,12.104,6.725,16.812
				c4.708,4.035,10.76,6.725,16.813,6.725c6.053,0,12.105-2.688,16.813-6.725c4.035-4.708,6.725-10.761,6.725-16.812
				c0-6.053-2.69-12.105-6.725-16.813C273.046,465.149,257.578,465.149,248.835,473.891z"/>
			<path d="M220.589,377.72c-12.778-3.362-25.556,4.035-28.918,16.813l-22.866,84.737c-3.363,12.777,4.035,25.557,16.813,28.918
				c2.018,0.673,4.035,0.673,6.053,0.673c10.088,0,20.176-6.726,22.866-17.484l22.866-84.738
				C240.765,393.861,232.694,381.083,220.589,377.72z"/>
			<path d="M310.035,325.935c-12.777-3.361-25.556,4.035-28.919,16.813l-22.866,84.737c-3.363,12.778,4.035,25.558,16.813,28.92
				c2.018,0.673,4.035,0.673,6.053,0.673c10.088,0,20.177-6.727,22.866-17.486l22.864-84.738
				C330.211,342.076,322.812,329.298,310.035,325.935z"/>
			<path d="M345.006,212.95h-7.396c-2.691-10.76-6.728-22.866-13.451-35.644c-22.193-41.697-61.873-64.563-110.967-64.563
				c-49.767,0-89.446,22.866-110.967,64.563c-6.726,13.45-10.761,26.901-13.451,37.661C35.644,225.056,0,266.08,0,320.555
				c0,34.972,16.813,67.253,44.387,86.756c12.105,8.743,28.918,6.054,37.662-6.053c8.743-12.105,6.053-28.919-6.053-37.661
				c-13.451-9.416-21.521-25.557-21.521-43.042c0-32.281,23.539-53.802,58.51-53.802c14.796,0,26.229-11.433,26.901-26.229
				c0-7.398,4.035-74.65,73.305-74.65c29.591,0,50.44,11.433,63.218,34.299c10.76,19.503,12.105,40.352,12.105,40.352
				c0.672,14.123,12.779,25.556,26.902,25.556h30.264c34.972,0,58.511,21.521,58.511,53.802c0,26.901-17.486,47.077-43.716,52.457
				c-14.795,2.69-24.211,16.812-21.521,31.609c2.69,12.777,13.451,21.521,26.229,21.521c2.019,0,3.363,0,5.382-0.672
				c51.784-10.088,87.428-53.13,87.428-105.587C457.318,258.682,409.568,212.95,345.006,212.95z"/>
			<path d="M581.736,192.102c-4.035-6.053-11.435-9.416-18.158-8.743c-32.281,2.69-63.891-14.123-80.031-42.37
				c-16.141-28.246-14.795-63.89,3.363-90.119c4.035-6.053,4.707-14.123,1.344-20.176c-3.361-6.725-10.088-10.76-17.484-11.433
				c-24.885-1.345-49.768,5.38-71.288,17.485c-35.644,20.849-59.854,56.492-65.234,97.517c-1.346,10.76,6.053,20.848,17.486,22.866
				c11.432,1.345,20.848-6.053,22.864-17.485c4.035-28.919,20.177-53.13,45.06-67.925c5.381-3.363,10.762-5.38,16.813-7.398
				c-9.416,32.281-5.381,67.253,12.105,96.844c17.483,29.591,45.729,50.44,78.012,58.51c-4.707,4.035-9.414,7.397-14.795,10.76
				c-5.381,3.363-11.434,5.38-16.812,7.398c-10.763,3.362-16.142,14.795-12.779,25.556c2.69,8.743,10.762,14.123,18.832,14.123
				c2.018,0,4.035,0,6.053-1.345c8.742-2.69,16.812-6.726,24.211-10.761c21.521-12.778,39.006-30.936,51.111-53.129
				C586.443,205.553,585.771,198.155,581.736,192.102z"/>
		</g>
	</g>
</g>
<g>
</g>
<g>
</g>
<g>
</g>
<g>
</g>
<g>
</g>
<g>
</g>
<g>
</g>
<g>
</g>
<g>
</g>
<g>
</g>
<g>
</g>
<g>
</g>
<g>
</g>
<g>
</g>
<g>
</g>
</svg>
