<?xml version="1.0" encoding="iso-8859-1"?>
<!-- Generator: Adobe Illustrator 16.0.0, SVG Export Plug-In . SVG Version: 6.00 Build 0)  -->
<!DOCTYPE svg PUBLIC "-//W3C//DTD SVG 1.1//EN" "http://www.w3.org/Graphics/SVG/1.1/DTD/svg11.dtd">
<svg version="1.1" id="Capa_1" xmlns="http://www.w3.org/2000/svg" xmlns:xlink="http://www.w3.org/1999/xlink" x="0px" y="0px"
	 width="585.119px" height="585.12px" viewBox="0 0 585.119 585.12" style="enable-background:new 0 0 585.119 585.12;"
	 xml:space="preserve">
<g>
	<g>
		<g>
			<path d="M215.881,370.657c11.433,0,20.176-8.742,20.176-20.176v-18.83c0-11.434-8.743-20.176-20.176-20.176
				c-11.433,0-20.176,8.742-20.176,20.176v18.83C195.706,361.915,204.448,370.657,215.881,370.657z"/>
			<path d="M215.881,406.301c-7.398,0-14.123,2.689-18.831,8.069c-5.38,4.708-8.07,12.105-8.07,18.831
				c0,7.397,2.69,14.123,8.07,18.83c4.708,5.381,12.105,8.07,18.831,8.07c6.725,0,14.123-2.689,18.831-8.07
				c4.708-4.707,8.07-12.104,8.07-18.83s-2.69-14.123-8.07-18.831C229.332,408.992,222.606,406.301,215.881,406.301z"/>
			<path d="M215.881,495.748c-11.433,0-20.176,8.742-20.176,20.177v18.83c0,11.434,8.743,20.177,20.176,20.177
				c11.433,0,20.176-8.743,20.176-20.177v-18.83C236.057,504.49,226.642,495.748,215.881,495.748z"/>
			<path d="M293.895,364.605l-16.813,9.415c-9.415,5.38-12.778,18.158-7.397,27.573c4.035,6.726,10.76,10.088,17.485,10.088
				c3.363,0,6.726-0.672,10.089-2.689l16.813-9.416c9.416-5.38,12.776-18.158,7.397-27.572
				C315.416,362.587,303.311,359.224,293.895,364.605z"/>
			<path d="M133.833,456.741l-16.813,9.415c-9.415,5.381-12.778,18.158-7.397,27.574c4.035,6.725,10.76,10.088,17.485,10.088
				c3.363,0,6.726-0.673,10.088-2.689l16.813-9.415c9.415-5.382,12.778-18.158,7.397-27.574
				C156.026,454.723,143.921,451.361,133.833,456.741z"/>
			<path d="M314.07,466.829l-16.813-9.415c-9.416-5.381-22.194-2.018-27.574,7.397s-2.018,22.193,7.397,27.573l16.812,9.416
				c3.364,2.018,6.726,2.688,10.089,2.688c6.725,0,13.45-3.361,17.485-10.088C326.848,484.314,323.486,472.208,314.07,466.829z"/>
			<path d="M117.692,399.576l16.813,9.416c3.363,2.019,6.725,2.689,10.088,2.689c6.725,0,13.451-3.362,17.486-10.088
				c5.38-9.415,2.018-22.193-7.398-27.573l-16.813-9.415c-9.416-5.381-22.193-2.018-27.574,7.396
				C104.242,382.09,107.604,394.196,117.692,399.576z"/>
			<path d="M581.736,203.198c-4.035-6.053-11.435-9.415-18.158-8.743c-32.281,2.69-63.891-14.123-80.031-42.369
				c-16.14-28.246-14.795-63.89,3.363-90.119c4.035-6.053,4.707-14.123,1.344-20.176c-3.361-6.726-10.088-10.761-17.484-11.433
				c-24.885-1.345-49.768,5.38-71.288,17.486c-35.644,20.848-59.854,56.491-65.234,97.516c-1.346,10.761,6.053,20.849,17.486,22.866
				c11.432,1.345,20.848-6.054,22.864-17.486c4.035-28.918,20.177-53.13,45.06-67.925c5.381-3.363,10.762-5.38,16.813-7.398
				c-9.416,32.281-5.381,67.253,12.105,96.845c17.483,29.591,45.729,50.438,78.012,58.51c-4.707,4.035-9.414,7.397-14.795,10.76
				c-5.381,3.363-11.434,5.38-16.812,7.398c-10.763,3.362-16.142,14.795-12.779,25.556c2.69,8.743,10.762,14.123,18.832,14.123
				c2.018,0,4.035,0,6.053-1.345c8.742-2.69,16.812-6.726,24.211-10.761c21.521-12.777,39.006-30.937,51.111-53.13
				C586.443,217.321,585.771,209.25,581.736,203.198z"/>
			<path d="M345.006,224.718h-7.396c-2.691-10.76-6.728-22.865-13.451-35.644c-22.193-41.697-61.873-64.562-110.967-64.562
				c-49.767,0-89.446,22.865-110.967,64.562c-6.726,13.451-10.761,26.901-13.451,37.662C35.644,236.152,0,277.849,0,332.323
				c0,29.592,11.433,56.493,31.609,76.669c10.76,10.088,27.573,10.088,38.334-0.673c10.088-10.761,10.088-27.573-0.673-38.334
				c-10.088-10.088-15.468-23.539-15.468-38.334c0-32.281,23.538-53.802,58.51-53.802c14.795,0,26.229-11.434,26.901-26.229
				c0-7.396,4.035-74.649,73.306-74.649c29.591,0,50.439,11.433,63.218,34.299c10.76,19.503,12.105,40.352,12.105,40.352
				c0.672,14.124,12.777,25.557,26.9,25.557h30.264c34.973,0,58.51,21.521,58.51,53.802c0,23.538-13.448,42.369-35.643,50.439
				c-14.123,4.708-21.521,20.176-16.814,34.299c4.035,11.434,14.123,18.157,25.558,18.157c2.688,0,6.053-0.672,8.742-1.345
				c43.715-14.796,71.289-54.475,71.289-100.879C457.318,269.779,409.568,224.718,345.006,224.718z"/>
		</g>
	</g>
</g>
<g>
</g>
<g>
</g>
<g>
</g>
<g>
</g>
<g>
</g>
<g>
</g>
<g>
</g>
<g>
</g>
<g>
</g>
<g>
</g>
<g>
</g>
<g>
</g>
<g>
</g>
<g>
</g>
<g>
</g>
</svg>
